<?xml version="1.0" encoding="utf-8"?>
<!-- Generator: Adobe Illustrator 21.0.0, SVG Export Plug-In . SVG Version: 6.00 Build 0)  -->
<svg version="1.1" id="レイヤー_1" xmlns="http://www.w3.org/2000/svg" xmlns:xlink="http://www.w3.org/1999/xlink" x="0px"
	 y="0px" viewBox="0 0 1000 1000" style="enable-background:new 0 0 1000 1000;fill:#FFFFFF;" xml:space="preserve">
<path d="M988.4,62.8c-6.4,0-19.7,0-29.6,0H41.3c-9.9,0-23.2,0-29.6,0S0,68.1,0,74.5c0,6.4,0,19.7,0,29.6v791.8c0,9.9,0,23.2,0,29.6
	s5.2,11.6,11.6,11.6s19.7,0,29.6,0h917.5c9.9,0,23.2,0,29.6,0c6.4,0,11.6-5.2,11.6-11.6s0-19.7,0-29.6V104.1c0-9.9,0-23.2,0-29.6
	C1000,68.1,994.8,62.8,988.4,62.8z M29.9,335.8c0-9.9,8.1-18,18-18h325.9c9.9,0,18,8.1,18,18v17.9c0,9.9,8.1,18,18,18h5
	c9.9,0,18-8.1,18-18v-17.9c0-9.9,4.5-18,10-18s10,8.1,10,18v172.8c0,9.9-8.1,18-18,18H47.9c-9.9,0-18-8.1-18-18V335.8z M412.3,358.3
	c-3.9,0-7.2-8.1-7.2-18v-53.8c0-9.9,3.2-18,7.2-18c3.9,0,7.2,8.1,7.2,18v53.8C419.4,350.3,416.2,358.3,412.3,358.3z M452.7,286.5
	c0,9.9-4.5,18-10,18s-10-8.1-10-18v-13.3c0-9.9-8.1-18-18-18h-5c-9.9,0-18,8.1-18,18v13.3c0,9.9-8.1,18-18,18H47.9
	c-9.9,0-18-8.1-18-18V110.7c0-9.9,8.1-18,18-18h386.8c9.9,0,18,8.1,18,18V286.5z M29.9,643.7c0-9.9,8.1-18,18-18h272.2
	c9.9,0,18,8.1,18,18v99.8c0,9.9-8.1,18-18,18H47.9c-9.9,0-18-8.1-18-18V643.7z M351.4,643.7c0-9.9,8.1-18,18-18h253.2
	c9.9,0,18,8.1,18,18v99.8c0,9.9-8.1,18-18,18H369.4c-9.9,0-18-8.1-18-18V643.7z M970.1,743.5c0,9.9-8.1,18-18,18H671.8
	c-9.9,0-18-8.1-18-18v-99.8c0-9.9,8.1-18,18-18h280.3c9.9,0,18,8.1,18,18V743.5z M970.1,508.6c0,9.9-8.1,18-18,18H565.3
	c-9.9,0-18-8.1-18-18V335.8c0-9.9,4.5-18,10-18c5.5,0,10,8.1,10,18v17.9c0,9.9,8.1,18,18,18h5c9.9,0,18-8.1,18-18v-17.9
	c0-9.9,8.1-18,18-18h325.9c9.9,0,18,8.1,18,18V508.6z M970.1,286.5c0,9.9-8.1,18-18,18H626.2c-9.9,0-18-8.1-18-18v-13.3
	c0-9.9-8.1-18-18-18h-5c-9.9,0-18,8.1-18,18v13.3c0,9.9-4.5,18-10,18c-5.5,0-10-8.1-10-18V110.7c0-9.9,8.1-18,18-18h386.8
	c9.9,0,18,8.1,18,18V286.5z M587.7,268.5c3.9,0,7.2,8.1,7.2,18v53.8c0,9.9-3.2,18-7.2,18s-7.2-8.1-7.2-18v-53.8
	C580.6,276.6,583.8,268.5,587.7,268.5z M952.1,539.9c9.9,0,18,8.1,18,18v36.6c0,9.9-8.1,18-18,18H47.9c-9.9,0-18-8.1-18-18v-36.6
	c0-9.9,8.1-18,18-18H448c9.9,0,18-8.1,18-18V104.1c0-9.9,8.1-18,18-18h32c9.9,0,18,8.1,18,18v417.9c0,9.9,8.1,18,18,18H952.1z
	 M29.9,792.8c0-9.9,8.1-18,18-18h272.2c9.9,0,18,8.1,18,18v103.1c0,9.9-8.1,18-18,18H47.9c-9.9,0-18-8.1-18-18V792.8z M351.4,792.8
	c0-9.9,8.1-18,18-18h253.2c9.9,0,18,8.1,18,18v103.1c0,9.9-8.1,18-18,18H369.4c-9.9,0-18-8.1-18-18V792.8z M653.9,792.8
	c0-9.9,8.1-18,18-18h280.3c9.9,0,18,8.1,18,18v103.1c0,9.9-8.1,18-18,18H671.8c-9.9,0-18-8.1-18-18V792.8z"/>
</svg>
